<svg width="56" height="56" viewBox="0 0 56 56" fill="none" xmlns="http://www.w3.org/2000/svg">
<rect width="56" height="56" fill="#EDF1F4"/>
<path d="M28.0001 27.2223C31.4365 27.2223 34.2223 24.4365 34.2223 21.0001C34.2223 17.5636 31.4365 14.7778 28.0001 14.7778C24.5636 14.7778 21.7778 17.5636 21.7778 21.0001C21.7778 24.4365 24.5636 27.2223 28.0001 27.2223Z" fill="#1F293F"/>
<path d="M16.3335 30.3334C18.4812 30.3334 20.2224 28.5923 20.2224 26.4446C20.2224 24.2968 18.4812 22.5557 16.3335 22.5557C14.1857 22.5557 12.4446 24.2968 12.4446 26.4446C12.4446 28.5923 14.1857 30.3334 16.3335 30.3334Z" fill="#1F293F"/>
<path d="M39.6667 30.3334C41.8145 30.3334 43.5556 28.5923 43.5556 26.4446C43.5556 24.2968 41.8145 22.5557 39.6667 22.5557C37.5189 22.5557 35.7778 24.2968 35.7778 26.4446C35.7778 28.5923 37.5189 30.3334 39.6667 30.3334Z" fill="#1F293F"/>
<path d="M42.8571 33.4443H13.0232C10.9854 33.4443 9.33337 35.0963 9.33337 37.1341V37.5339C9.33337 39.5701 10.9854 41.2221 13.0232 41.2221H42.8571C44.9603 41.2221 46.6667 39.5157 46.6667 37.411V37.2539C46.6667 35.1508 44.9603 33.4443 42.8571 33.4443Z" fill="#1F293F"/>
<path d="M23.3334 42.2224H32.6667C35.9357 42.2224 38.3334 39.1869 38.3334 35.7779C38.3334 32.369 35.9357 29.3335 32.6667 29.3335H23.3334C20.0645 29.3335 17.6667 32.369 17.6667 35.7779C17.6667 39.1869 20.0645 42.2224 23.3334 42.2224Z" fill="#1F293F" stroke="#EDF1F4" stroke-width="2"/>
</svg>
