<svg width="56" height="56" viewBox="0 0 56 56" fill="none" xmlns="http://www.w3.org/2000/svg">
<rect width="56" height="56" fill="#EDF1F4"/>
<path d="M27.9179 16.0052C27.9207 15.326 27.3695 14.7748 26.6903 14.7776L19.2831 14.811C18.2949 14.8152 17.8036 16.0094 18.5023 16.708L25.986 24.1918C26.6847 24.8905 27.8789 24.3992 27.8831 23.411L27.9179 16.0052Z" fill="#1F293F"/>
<path d="M19.5673 41.222H16.7836C15.2457 41.222 14 39.9763 14 38.4384V37.0466C14 35.5086 15.2457 34.2629 16.7836 34.2629H19.5673C21.1052 34.2629 22.3509 35.5086 22.3509 37.0466V38.4384C22.3509 39.9763 21.1052 41.222 19.5673 41.222Z" fill="#1F293F"/>
<path d="M29.3099 41.2221H26.5263C24.9883 41.2221 23.7427 39.9764 23.7427 38.4385V30.0876C23.7427 28.5496 24.9883 27.304 26.5263 27.304H29.3099C30.8479 27.304 32.0936 28.5496 32.0936 30.0876V38.4385C32.0936 39.9764 30.8479 41.2221 29.3099 41.2221Z" fill="#1F293F"/>
<path d="M39.0526 41.222H36.269C34.731 41.222 33.4854 39.9764 33.4854 38.4384V17.5612C33.4854 16.0233 34.731 14.7776 36.269 14.7776H39.0526C40.5906 14.7776 41.8362 16.0233 41.8362 17.5612V38.4384C41.8362 39.9764 40.5906 41.222 39.0526 41.222Z" fill="#1F293F"/>
<path d="M16.4747 28.6958C15.8414 28.6958 15.2081 28.4536 14.7252 27.9707C13.7593 27.0048 13.7593 25.4376 14.7252 24.4717L20.9104 18.2865C21.8763 17.3205 23.4435 17.3205 24.4094 18.2865C25.3753 19.2524 25.3753 20.8195 24.4094 21.7855L18.2242 27.9707C17.7412 28.4536 17.108 28.6958 16.4747 28.6958Z" fill="#1F293F"/>
</svg>
