<svg width="56" height="56" viewBox="0 0 56 56" fill="none" xmlns="http://www.w3.org/2000/svg">
<rect width="56" height="56" fill="#EDF1F4"/>
<path d="M38.3445 39.8222H17.6556C15.2069 39.8222 13.2222 37.8375 13.2222 35.3888V20.6111C13.2222 18.1624 15.2069 16.1777 17.6556 16.1777H38.3445C40.7931 16.1777 42.7778 18.1624 42.7778 20.6111V35.3888C42.7778 37.8375 40.7931 39.8222 38.3445 39.8222Z" fill="#1F293F"/>
<path d="M24.187 28.9389L24.1871 28.939C26.5344 30.347 29.4656 30.347 31.8129 28.939L31.813 28.9389L43.5495 21.8973L44.2778 21.4604V20.6111C44.2778 17.334 41.6216 14.6777 38.3445 14.6777H17.6556C14.3785 14.6777 11.7222 17.334 11.7222 20.6111V21.4604L12.4505 21.8973L24.187 28.9389Z" fill="#1F293F" stroke="#EDF1F4" stroke-width="3"/>
</svg>
