<svg width="56" height="56" viewBox="0 0 56 56" fill="none" xmlns="http://www.w3.org/2000/svg">
<rect width="56" height="56" fill="#EDF1F4"/>
<path d="M37.3335 43.5554H18.6668C16.0892 43.5554 14.0001 41.4663 14.0001 38.8887V26.4443C14.0001 23.8667 16.0892 21.7776 18.6668 21.7776H37.3335C39.911 21.7776 42.0001 23.8667 42.0001 26.4443V38.8887C42.0001 41.4663 39.911 43.5554 37.3335 43.5554Z" fill="#1F293F"/>
<path d="M21.7781 21.7777C21.7781 18.3414 24.5641 15.5554 28.0003 15.5554C31.4366 15.5554 34.2226 18.3414 34.2226 21.7777H37.3337C37.3337 16.6226 33.1554 12.4443 28.0003 12.4443C22.8452 12.4443 18.667 16.6226 18.667 21.7777H21.7781Z" fill="#1F293F"/>
<path d="M28 29.5554C26.2811 29.5554 24.8889 30.9476 24.8889 32.6665C24.8889 34.3854 26.2811 35.7776 28 35.7776C29.7189 35.7776 31.1111 34.3854 31.1111 32.6665C31.1111 30.9476 29.7189 29.5554 28 29.5554Z" fill="#E9F3FF"/>
</svg>
