<svg width="56" height="56" viewBox="0 0 56 56" fill="none" xmlns="http://www.w3.org/2000/svg">
<rect width="56" height="56" fill="#EDF1F4"/>
<path d="M41.7604 30.3767C41.7604 37.9763 35.5996 44.1371 28 44.1371C20.4003 44.1371 14.2395 37.9763 14.2395 30.3767C14.2395 22.777 20.4003 16.6162 28 16.6162C35.5996 16.6162 41.7604 22.777 41.7604 30.3767Z" fill="#1F293F" stroke="#EDF1F4"/>
<path d="M31.1688 16.4823V14.5318C31.1688 12.7825 29.7507 11.3628 27.9999 11.3628C26.249 11.3628 24.8309 12.7825 24.8309 14.5318V16.4823C25.8513 16.2494 26.9097 16.1163 27.9999 16.1163C29.09 16.1163 30.1484 16.2494 31.1688 16.4823Z" fill="#1F293F"/>
<path d="M33.075 34.7957L31.2259 32.4047C30.6713 31.687 30.3338 30.825 30.2514 29.9218L29.5844 22.4541C29.5844 21.5795 28.8745 20.8696 27.9999 20.8696C27.1252 20.8696 26.4154 21.5795 26.4154 22.4541L25.8117 30.1944C25.6929 31.7155 26.3124 33.2017 27.477 34.1889L30.8345 37.0362C31.4541 37.6558 32.4571 37.6558 33.075 37.0362C33.6945 36.4183 33.6945 35.4137 33.075 34.7957Z" fill="#EDF1F4"/>
</svg>
