<svg width="135" height="135" viewBox="0 0 135 135" fill="none" xmlns="http://www.w3.org/2000/svg">
<rect width="135" height="135" fill="#EDF1F4"/>
<path d="M87.6453 97.5855H47.8822C42.3916 97.5855 37.9414 93.1354 37.9414 87.6448V61.136C37.9414 55.6454 42.3916 51.1952 47.8822 51.1952H87.6453C93.136 51.1952 97.5861 55.6454 97.5861 61.136V87.6448C97.5861 93.1354 93.136 97.5855 87.6453 97.5855Z" fill="#1F293F"/>
<path d="M54.51 51.1952C54.51 43.8754 60.4447 37.9408 67.7644 37.9408C75.0841 37.9408 81.0188 43.8754 81.0188 51.1952H87.646C87.646 40.2139 78.7457 31.3136 67.7644 31.3136C56.7831 31.3136 47.8828 40.2139 47.8828 51.1952H54.51Z" fill="#1F293F"/>
<path d="M67.7634 79.3607C70.5084 79.3607 72.7338 77.1354 72.7338 74.3903C72.7338 71.6452 70.5084 69.4199 67.7634 69.4199C65.0183 69.4199 62.793 71.6452 62.793 74.3903C62.793 77.1354 65.0183 79.3607 67.7634 79.3607Z" fill="#EDF1F4"/>
<path d="M84.3337 79.3607C87.0787 79.3607 89.3041 77.1354 89.3041 74.3903C89.3041 71.6452 87.0787 69.4199 84.3337 69.4199C81.5886 69.4199 79.3633 71.6452 79.3633 74.3903C79.3633 77.1354 81.5886 79.3607 84.3337 79.3607Z" fill="#EDF1F4"/>
<path d="M51.197 79.3607C53.942 79.3607 56.1673 77.1354 56.1673 74.3903C56.1673 71.6452 53.942 69.4199 51.197 69.4199C48.4519 69.4199 46.2266 71.6452 46.2266 74.3903C46.2266 77.1354 48.4519 79.3607 51.197 79.3607Z" fill="#EDF1F4"/>
</svg>
