<svg width="56" height="56" viewBox="0 0 56 56" fill="none" xmlns="http://www.w3.org/2000/svg">
<rect width="56" height="56" fill="#EDF1F4"/>
<path d="M39.2834 44.925H16.7166C13.6005 44.925 11.075 42.3994 11.075 39.2834V18.5972H44.9251V39.2834C44.9251 42.3994 42.3995 44.925 39.2834 44.925Z" fill="#1F293F"/>
<path d="M10.1332 18.5972V19.539H11.075H44.9251H45.8669V18.5972V16.7166C45.8669 13.0804 42.9196 10.1332 39.2834 10.1332H16.7166C13.0804 10.1332 10.1332 13.0804 10.1332 16.7166V18.5972Z" fill="#1F293F" stroke="#EDF1F4" stroke-width="1.88357"/>
<path d="M31.7612 41.164C32.7998 41.164 33.6417 40.322 33.6417 39.2834C33.6417 38.2448 32.7998 37.4028 31.7612 37.4028C30.7226 37.4028 29.8806 38.2448 29.8806 39.2834C29.8806 40.322 30.7226 41.164 31.7612 41.164Z" fill="#EDF1F4"/>
<path d="M24.239 41.164C25.2776 41.164 26.1195 40.322 26.1195 39.2834C26.1195 38.2448 25.2776 37.4028 24.239 37.4028C23.2004 37.4028 22.3584 38.2448 22.3584 39.2834C22.3584 40.322 23.2004 41.164 24.239 41.164Z" fill="#EDF1F4"/>
<path d="M16.7167 41.164C17.7554 41.164 18.5973 40.322 18.5973 39.2834C18.5973 38.2448 17.7554 37.4028 16.7167 37.4028C15.6781 37.4028 14.8362 38.2448 14.8362 39.2834C14.8362 40.322 15.6781 41.164 16.7167 41.164Z" fill="#EDF1F4"/>
<path d="M16.7167 33.6417C17.7554 33.6417 18.5973 32.7998 18.5973 31.7612C18.5973 30.7226 17.7554 29.8806 16.7167 29.8806C15.6781 29.8806 14.8362 30.7226 14.8362 31.7612C14.8362 32.7998 15.6781 33.6417 16.7167 33.6417Z" fill="#EDF1F4"/>
<path d="M24.239 33.6417C25.2776 33.6417 26.1195 32.7998 26.1195 31.7612C26.1195 30.7226 25.2776 29.8806 24.239 29.8806C23.2004 29.8806 22.3584 30.7226 22.3584 31.7612C22.3584 32.7998 23.2004 33.6417 24.239 33.6417Z" fill="#EDF1F4"/>
<path d="M31.7612 33.6417C32.7998 33.6417 33.6417 32.7998 33.6417 31.7612C33.6417 30.7226 32.7998 29.8806 31.7612 29.8806C30.7226 29.8806 29.8806 30.7226 29.8806 31.7612C29.8806 32.7998 30.7226 33.6417 31.7612 33.6417Z" fill="#EDF1F4"/>
<path d="M39.2834 33.6417C40.322 33.6417 41.164 32.7998 41.164 31.7612C41.164 30.7226 40.322 29.8806 39.2834 29.8806C38.2448 29.8806 37.4028 30.7226 37.4028 31.7612C37.4028 32.7998 38.2448 33.6417 39.2834 33.6417Z" fill="#EDF1F4"/>
<path d="M39.2834 26.1195C40.322 26.1195 41.164 25.2776 41.164 24.239C41.164 23.2004 40.322 22.3584 39.2834 22.3584C38.2448 22.3584 37.4028 23.2004 37.4028 24.239C37.4028 25.2776 38.2448 26.1195 39.2834 26.1195Z" fill="#EDF1F4"/>
<path d="M31.7612 26.1195C32.7998 26.1195 33.6417 25.2776 33.6417 24.239C33.6417 23.2004 32.7998 22.3584 31.7612 22.3584C30.7226 22.3584 29.8806 23.2004 29.8806 24.239C29.8806 25.2776 30.7226 26.1195 31.7612 26.1195Z" fill="#EDF1F4"/>
<path d="M24.239 26.1195C25.2776 26.1195 26.1195 25.2776 26.1195 24.239C26.1195 23.2004 25.2776 22.3584 24.239 22.3584C23.2004 22.3584 22.3584 23.2004 22.3584 24.239C22.3584 25.2776 23.2004 26.1195 24.239 26.1195Z" fill="#EDF1F4"/>
</svg>
