<svg width="56" height="56" viewBox="0 0 56 56" fill="none" xmlns="http://www.w3.org/2000/svg">
<rect width="56" height="56" fill="#EDF1F4"/>
<path d="M38.2632 33.1315H17.7367C15.3072 33.1315 13.3381 31.1624 13.3381 28.7329V37.53C13.3381 39.9595 15.3072 41.9286 17.7367 41.9286H38.2632C40.6927 41.9286 42.6618 39.9595 42.6618 37.53V28.7329C42.6618 31.1624 40.6927 33.1315 38.2632 33.1315Z" fill="#1F293F"/>
<path d="M38.2632 16.0034H17.7367C14.7549 16.0034 12.3381 18.4202 12.3381 21.402V28.7329C12.3381 31.7146 14.7549 34.1314 17.7367 34.1314H38.2632C41.245 34.1314 43.6618 31.7146 43.6618 28.7329V21.402C43.6618 18.4202 41.245 16.0034 38.2632 16.0034Z" fill="#1F293F" stroke="#EDF1F4" stroke-width="2"/>
<path d="M28.0001 29.4664C29.2147 29.4664 30.1993 28.4818 30.1993 27.2671C30.1993 26.0525 29.2147 25.0679 28.0001 25.0679C26.7854 25.0679 25.8008 26.0525 25.8008 27.2671C25.8008 28.4818 26.7854 29.4664 28.0001 29.4664Z" fill="#EDF1F4"/>
<path d="M29.4662 14.0713C28.9295 14.0713 27.0704 14.0713 26.5338 14.0713C24.9137 14.0713 23.6014 15.3835 23.6014 17.0037H32.3985C32.3985 15.3835 31.0863 14.0713 29.4662 14.0713Z" fill="#1F293F"/>
</svg>
