<svg width="56" height="56" viewBox="0 0 56 56" fill="none" xmlns="http://www.w3.org/2000/svg">
<rect width="56" height="56" fill="#EDF1F4"/>
<path d="M28 45.1109C37.4502 45.1109 45.1111 37.45 45.1111 27.9998C45.1111 18.5496 37.4502 10.8887 28 10.8887C18.5498 10.8887 10.8889 18.5496 10.8889 27.9998C10.8889 37.45 18.5498 45.1109 28 45.1109Z" fill="#1D263A"/>
<path d="M22.3447 29.7109C21.289 29.7109 20.7585 30.984 21.5011 31.7335L26.7799 37.0619C27.4524 37.7395 28.5475 37.7395 29.22 37.0619L34.4987 31.7335C35.2414 30.984 34.7092 29.7109 33.6552 29.7109H22.3447Z" fill="#EDF1F4"/>
<path d="M29.7112 31.4218C29.7112 31.4218 29.7112 20.0395 29.7112 19.444C29.7112 18.4995 28.9446 17.7329 28.0001 17.7329C27.0555 17.7329 26.2889 18.4995 26.2889 19.444C26.2889 20.0395 26.2889 31.4218 26.2889 31.4218H29.7112Z" fill="#EDF1F4"/>
</svg>
