<svg width="56" height="56" viewBox="0 0 56 56" fill="none" xmlns="http://www.w3.org/2000/svg">
<rect width="56" height="56" fill="#EDF1F4"/>
<path d="M16.7757 32.542C16.5838 32.6843 16.3903 32.8251 16.2175 32.9978C15.0724 34.143 14.1319 37.6201 13.5737 40.1503C13.2731 41.513 14.4886 42.7286 15.8513 42.4279C18.3799 41.8697 21.8586 40.9292 23.0038 39.7841C23.1781 39.6097 23.3189 39.4178 23.4596 39.2259L16.7757 32.542Z" fill="#1F293F"/>
<path d="M31.9158 32.6666L40.1271 24.4553C41.3283 23.2541 42.0016 21.6275 42.0016 19.9306V17.1988C42.0016 15.4315 40.5702 14 38.8028 14H36.0711C34.3741 14 32.7475 14.6733 31.548 15.8745L23.3351 24.0858L17.8299 23.2989C16.0914 23.051 14.3305 23.9514 13.5531 25.6676C12.8462 27.2302 13.318 29.0839 14.532 30.2963L25.7054 41.4696C26.9177 42.682 28.7714 43.1538 30.334 42.4469C32.0502 41.6696 32.9522 39.9086 32.7027 38.1701L31.9158 32.6666Z" fill="#1F293F"/>
<path fill-rule="evenodd" clip-rule="evenodd" d="M17.8299 23.2989L23.335 24.0858L31.5479 15.8745C32.7475 14.6733 34.374 14 36.071 14H38.8028C40.5701 14 42.0016 15.4315 42.0016 17.1988V19.9306C42.0016 21.6275 41.3282 23.2541 40.1271 24.4553L31.9158 32.6666L32.7027 38.1701C32.9522 39.9086 32.0501 41.6696 30.334 42.4469C28.7714 43.1538 26.9177 42.682 25.7053 41.4696L14.5319 30.2963C13.318 29.0839 12.8462 27.2302 13.5531 25.6676C14.3304 23.9514 16.0913 23.051 17.8299 23.2989ZM13.1186 31.7114L24.2911 42.8838C25.9985 44.5913 28.7236 45.3706 31.1583 44.2691C33.7001 43.1178 35.0559 40.4885 34.6824 37.886L34.0372 33.3736L41.5413 25.8695C43.1175 24.2932 44.0016 22.1579 44.0016 19.9306V17.1988C44.0016 14.3269 41.6747 12 38.8028 12H36.071C33.8444 12 31.7089 12.8835 30.1338 14.4601C30.134 14.46 30.1337 14.4603 30.1338 14.4601C30.1336 14.4603 30.133 14.461 30.1328 14.4612L22.6281 21.9644L18.1129 21.319C15.513 20.9483 12.8831 22.2993 11.7313 24.8424C10.6297 27.2774 11.4087 30.0037 13.1186 31.7114Z" fill="#EDF1F4"/>
<path d="M34.804 23.5965C36.129 23.5965 37.2031 22.5224 37.2031 21.1974C37.2031 19.8725 36.129 18.7983 34.804 18.7983C33.479 18.7983 32.4049 19.8725 32.4049 21.1974C32.4049 22.5224 33.479 23.5965 34.804 23.5965Z" fill="#EDF1F4"/>
<path d="M28.4064 29.994C29.7314 29.994 30.8055 28.9199 30.8055 27.5949C30.8055 26.2699 29.7314 25.1958 28.4064 25.1958C27.0814 25.1958 26.0073 26.2699 26.0073 27.5949C26.0073 28.9199 27.0814 29.994 28.4064 29.994Z" fill="#EDF1F4"/>
</svg>
