<svg width="56" height="56" viewBox="0 0 56 56" fill="none" xmlns="http://www.w3.org/2000/svg">
<rect width="56" height="56" fill="#EDF1F4"/>
<path d="M28.1938 41.2223C27.3524 41.2223 26.4959 40.9067 25.8499 40.2456C25.2038 39.5996 15.8731 31.8315 14.3255 30.2989C10.7795 26.753 10.7795 20.9983 14.3255 17.4373C17.8865 13.8913 23.6411 13.8913 27.1871 17.4373C27.5627 17.828 27.8933 18.2487 28.1938 18.6694L31.4197 26.6252L28.1938 41.2223Z" fill="#1F293F"/>
<path d="M28.1934 41.2223C29.0348 41.2223 29.8912 40.9067 30.5373 40.2456C31.1834 39.5996 40.5141 31.8315 42.0617 30.2989C45.6076 26.753 45.6076 20.9983 42.0617 17.4373C38.5007 13.8913 32.746 13.8913 29.2001 17.4373C28.8244 17.828 28.4939 18.2487 28.1934 18.6694V28.3006V41.2223Z" fill="#1F293F"/>
</svg>
