<svg width="56" height="56" viewBox="0 0 56 56" fill="none" xmlns="http://www.w3.org/2000/svg">
<rect width="56" height="56" fill="#EDF1F4"/>
<path d="M35 42H21C18.6802 42 16.8 40.1198 16.8 37.8V18.2C16.8 15.8802 18.6802 14 21 14H30.8L39.2 22.4V37.8C39.2 40.1198 37.3198 42 35 42Z" fill="#1F293F"/>
<path d="M31.5072 13.2929L29.8001 11.5858V14V19.6C29.8001 21.6993 31.5008 23.4 33.6001 23.4H39.2001H41.6143L39.9072 21.6929L31.5072 13.2929Z" fill="#1F293F" stroke="#EDF1F4" stroke-width="2"/>
<path d="M22.9996 35.0408C22.7656 35.0408 22.5306 34.9598 22.3416 34.7938C21.9255 34.4298 21.8835 33.7977 22.2466 33.3827L25.7468 29.3824C25.9388 29.1604 26.1928 29.0504 26.5118 29.0404C26.8048 29.0444 27.0809 29.1754 27.2689 29.3994L28.985 31.4596L32.2192 27.4153C32.5662 26.9853 33.1932 26.9133 33.6253 27.2593C34.0563 27.6053 34.1263 28.2344 33.7813 28.6654L29.781 33.6657C29.593 33.8997 29.31 34.0377 29.01 34.0407C28.697 34.0857 28.4239 33.9107 28.2319 33.6817L26.4818 31.5806L23.7527 34.6988C23.5546 34.9258 23.2776 35.0408 22.9996 35.0408Z" fill="#EDF1F4"/>
</svg>
