<svg width="56" height="56" viewBox="0 0 56 56" fill="none" xmlns="http://www.w3.org/2000/svg">
<rect width="56" height="56" fill="#EDF1F4"/>
<g clip-path="url(#clip0_2309_23360)">
<path d="M33.6369 40.2036L34.3413 37.4553H21.6588L22.3617 40.2036C22.622 41.2205 23.2133 42.1218 24.0425 42.7655C24.8716 43.4092 25.8914 43.7586 26.9411 43.7587H29.0575C30.1071 43.7586 31.1269 43.4092 31.9561 42.7655C32.7852 42.1218 33.3766 41.2205 33.6369 40.2036Z" fill="#1D263A"/>
<path d="M20.69 37.7033L20.8826 38.4552H21.6588H34.3413H35.1175L35.31 37.7033L36.2351 34.0909C38.4248 32.4261 40.0611 30.1346 40.9236 27.5165C41.8247 24.7813 41.8347 21.8307 40.9523 19.0894C40.0698 16.3481 38.3404 13.9575 36.0129 12.2617C33.6854 10.5658 30.8798 9.6521 28 9.6521C25.1202 9.6521 22.3147 10.5658 19.9872 12.2617C17.6597 13.9575 15.9302 16.3481 15.0478 19.0894C14.1653 21.8307 14.1753 24.7813 15.0764 27.5165C15.9389 30.1346 17.5752 32.4261 19.765 34.0909L20.69 37.7033Z" fill="#1D263A" stroke="#EDF1F4" stroke-width="2"/>
</g>
<defs>
<clipPath id="clip0_2309_23360">
<rect width="37.8205" height="37.8205" fill="white" transform="translate(9.0898 9.08984)"/>
</clipPath>
</defs>
</svg>
