<svg width="56" height="56" viewBox="0 0 56 56" fill="none" xmlns="http://www.w3.org/2000/svg">
<rect width="56" height="56" fill="#EDF1F4"/>
<path d="M31.6128 11.9941C25.6277 11.9941 20.7754 16.8464 20.7754 22.8316C20.7754 28.8167 25.6277 33.669 31.6128 33.669C37.598 33.669 42.4503 28.8167 42.4503 22.8316C42.4503 16.8464 37.598 11.9941 31.6128 11.9941ZM35.2253 22.1091C33.6286 22.1091 32.3353 20.8158 32.3353 19.2191C32.3353 17.6224 33.6286 16.3291 35.2253 16.3291C36.822 16.3291 38.1153 17.6224 38.1153 19.2191C38.1153 20.8158 36.822 22.1091 35.2253 22.1091Z" fill="#1F293F"/>
<path d="M21.6239 27.041L13.9742 34.6908C13.7025 34.9625 13.5508 35.3295 13.5508 35.7124V39.4492C13.5508 40.2468 14.1981 40.8941 14.9958 40.8941H18.7325C19.1154 40.8941 19.4839 40.7424 19.7541 40.4708L21.6225 38.6024C22.0054 38.2195 22.2207 37.6993 22.2207 37.1574C22.2207 36.0289 23.1354 35.1142 24.2639 35.1142C24.8058 35.1142 25.326 34.8989 25.7089 34.516L27.4039 32.821C24.8029 31.7242 22.7207 29.6406 21.6239 27.041Z" fill="#1F293F"/>
</svg>
