<svg width="56" height="56" viewBox="0 0 56 56" fill="none" xmlns="http://www.w3.org/2000/svg">
<rect width="56" height="56" fill="#EDF1F4"/>
<path d="M28 44.6772C37.2106 44.6772 44.6772 37.2106 44.6772 28C44.6772 18.7894 37.2106 11.3228 28 11.3228C18.7894 11.3228 11.3228 18.7894 11.3228 28C11.3228 37.2106 18.7894 44.6772 28 44.6772Z" fill="#1F293F"/>
<path d="M34.8426 32.2977C34.8426 34.936 33.5368 38.0063 28.9072 38.0063H24.903C23.4454 38.0063 22.263 36.8239 22.263 35.3663V20.6337C22.2647 19.1761 23.4454 17.9937 24.903 17.9937H28.2568C31.8908 17.9937 34.1639 19.7181 34.1639 23.1386C34.1639 24.326 34.2006 26.0788 31.6773 27.5197V27.5747C32.0559 27.6714 34.8426 28.5253 34.8426 32.2977ZM30.1813 23.859C30.1813 22.198 29.1073 21.726 28.0033 21.726H26.4773V26.0788H28.0317C29.2991 26.0788 30.1813 25.2799 30.1813 23.859ZM30.5482 31.8858C30.5482 30.6266 29.8728 29.3842 28.1167 29.3842H26.4773V34.2723H28.1751C29.8378 34.274 30.5482 33.1349 30.5482 31.8858Z" fill="#EDF1F4"/>
<path d="M29.6677 16.3259C29.6677 15.4053 28.9206 14.6582 28 14.6582C27.0794 14.6582 26.3323 15.4053 26.3323 16.3259C26.3323 16.6361 26.3323 17.6835 26.3323 17.9936C26.3323 18.9142 27.0794 19.6614 28 19.6614C28.9206 19.6614 29.6677 18.9142 29.6677 17.9936C29.6677 17.6835 29.6677 16.6361 29.6677 16.3259Z" fill="#EDF1F4"/>
<path d="M29.6677 38.0061C29.6677 37.0855 28.9206 36.3384 28 36.3384C27.0794 36.3384 26.3323 37.0855 26.3323 38.0061C26.3323 38.3163 26.3323 39.3636 26.3323 39.6738C26.3323 40.5944 27.0794 41.3415 28 41.3415C28.9206 41.3415 29.6677 40.5944 29.6677 39.6738C29.6677 39.3636 29.6677 38.3163 29.6677 38.0061Z" fill="#EDF1F4"/>
</svg>
