<svg width="56" height="56" viewBox="0 0 56 56" fill="none" xmlns="http://www.w3.org/2000/svg">
<rect width="56" height="56" fill="#EDF1F4"/>
<path d="M27.918 16.0049C27.9208 15.3257 27.3696 14.7746 26.6904 14.7774L19.2832 14.8108C18.295 14.8149 17.8037 16.0091 18.5024 16.7078L25.9862 24.1916C26.6848 24.8903 27.879 24.399 27.8832 23.4108L27.918 16.0049Z" fill="#1F293F"/>
<path d="M19.5673 41.2218H16.7836C15.2457 41.2218 14 39.9761 14 38.4381V37.0463C14 35.5084 15.2457 34.2627 16.7836 34.2627H19.5673C21.1052 34.2627 22.3509 35.5084 22.3509 37.0463V38.4381C22.3509 39.9761 21.1052 41.2218 19.5673 41.2218Z" fill="#1F293F"/>
<path d="M29.3099 41.2218H26.5263C24.9883 41.2218 23.7427 39.9762 23.7427 38.4382V30.0873C23.7427 28.5494 24.9883 27.3037 26.5263 27.3037H29.3099C30.8479 27.3037 32.0936 28.5494 32.0936 30.0873V38.4382C32.0936 39.9762 30.8479 41.2218 29.3099 41.2218Z" fill="#1F293F"/>
<path d="M39.0526 41.2218H36.269C34.731 41.2218 33.4854 39.9761 33.4854 38.4382V17.561C33.4854 16.023 34.731 14.7773 36.269 14.7773H39.0526C40.5906 14.7773 41.8362 16.023 41.8362 17.561V38.4382C41.8362 39.9761 40.5906 41.2218 39.0526 41.2218Z" fill="#1F293F"/>
<path d="M16.4747 28.6953C15.8414 28.6953 15.2081 28.4532 14.7252 27.9702C13.7593 27.0043 13.7593 25.4371 14.7252 24.4712L20.9104 18.286C21.8763 17.32 23.4435 17.32 24.4094 18.286C25.3753 19.2519 25.3753 20.8191 24.4094 21.785L18.2242 27.9702C17.7412 28.4532 17.108 28.6953 16.4747 28.6953Z" fill="#1F293F"/>
</svg>
