<svg width="56" height="56" viewBox="0 0 56 56" fill="none" xmlns="http://www.w3.org/2000/svg">
<rect width="56" height="56" fill="#EDF1F4"/>
<path d="M39.9001 13H16.8001C15.0886 13 13.7001 14.3885 13.7001 16.1V39.9C13.7001 41.6115 15.0886 43 16.8001 43C18.5116 43 19.9001 41.6115 19.9001 39.9V39.8986V39.8972V39.8956V39.894V39.8922V39.8904V39.8885V39.8865V39.8844V39.8823V39.88V39.8777V39.8752V39.8727V39.8701V39.8674V39.8646V39.8618V39.8588V39.8558V39.8527V39.8494V39.8461V39.8428V39.8393V39.8357V39.8321V39.8284V39.8246V39.8207V39.8167V39.8126V39.8085V39.8042V39.7999V39.7955V39.791V39.7865V39.7818V39.7771V39.7723V39.7674V39.7624V39.7573V39.7522V39.7469V39.7416V39.7362V39.7307V39.7252V39.7195V39.7138V39.708V39.7021V39.6961V39.6901V39.6839V39.6777V39.6714V39.6651V39.6586V39.6521V39.6455V39.6388V39.632V39.6251V39.6182V39.6112V39.6041V39.5969V39.5897V39.5823V39.5749V39.5674V39.5599V39.5522V39.5445V39.5367V39.5288V39.5209V39.5128V39.5047V39.4965V39.4883V39.4799V39.4715V39.463V39.4545V39.4458V39.4371V39.4283V39.4194V39.4105V39.4014V39.3923V39.3832V39.3739V39.3646V39.3552V39.3457V39.3362V39.3265V39.3168V39.3071V39.2972V39.2873V39.2773V39.2672V39.2571V39.2469V39.2366V39.2262V39.2158V39.2053V39.1947V39.184V39.1733V39.1625V39.1517V39.1407V39.1297V39.1186V39.1075V39.0962V39.0849V39.0736V39.0621V39.0506V39.0391V39.0274V39.0157V39.0039V38.992V38.9801V38.9681V38.956V38.9439V38.9317V38.9194V38.9071V38.8947V38.8822V38.8696V38.857V38.8443V38.8316V38.8188V38.8059V38.7929V38.7799V38.7668V38.7536V38.7404V38.7271V38.7137V38.7003V38.6868V38.6733V38.6596V38.646V38.6322V38.6184V38.6045V38.5905V38.5765V38.5624V38.5483V38.5341V38.5198V38.5054V38.491V38.4766V38.462V38.4474V38.4328V38.418V38.4033V38.3884V38.3735V38.3585V38.3435V38.3284V38.3132V38.298V38.2827V38.2673V38.2519V38.2364V38.2209V38.2053V38.1896V38.1739V38.1581V38.1423V38.1264V38.1104V38.0944V38.0783V38.0621V38.0459V38.0296V38.0133V37.9969V37.9805V37.964V37.9474V37.9308V37.9141V37.8974V37.8806V37.8637V37.8468V37.8298V37.8128V37.7957V37.7785V37.7613V37.744V37.7267V37.7093V37.6919V37.6744V37.6569V37.6392V37.6216V37.6039V37.5861V37.5683V37.5504V37.5324V37.5144V37.4964V37.4783V37.4601V37.4419V37.4236V37.4053V37.3869V37.3684V37.35V37.3314V37.3128V37.2941V37.2754V37.2567V37.2379V37.219V37.2001V37.1811V37.1621V37.143V37.1239V37.1047V37.0854V37.0661V37.0468V37.0274V37.008V36.9885V36.9689V36.9493V36.9297V36.91V36.8902V36.8704V36.8506V36.8307V36.8107V36.7907V36.7706V36.7505V36.7304V36.7102V36.6899V36.6696V36.6493V36.6289V36.6084V36.5879V36.5674V36.5468V36.5262V36.5055V36.4847V36.464V36.4431V36.4222V36.4013V36.3803V36.3593V36.3383V36.3171V36.296V36.2748V36.2535V36.2322V36.2109V36.1895V36.1681V36.1466V36.125V36.1035V36.0819V36.0602V36.0385V36.0167V35.9949V35.9731V35.9512V35.9293V35.9073V35.8853V35.8632V35.8411V35.819V35.7968V35.7746V35.7523V35.73V35.7076V35.6852V35.6627V35.6403V35.6177V35.5952V35.5725V35.5499V35.5272V35.5045V35.4817V35.4589V35.436V35.4131V35.3901V35.3672V35.3441V35.3211V35.298V35.2748V35.2517V35.2284V35.2052V35.1819V35.1585V35.1351V35.1117V35.0883V35.0648V35.0412V35.0177V34.9941V34.9704V34.9467V34.923V34.8993V34.8755V34.8516V34.8277V34.8038V34.7799V34.7559V34.7319V34.7078V34.6837V34.6596V34.6355V34.6113V34.587V34.5628V34.5385V34.5141V34.4897V34.4653V34.4409V34.4164V34.3919V34.3673V34.3428V34.3181V34.2935V34.2688V34.2441V34.2193V34.1946V34.1697V34.1449V34.12V34.0951V34.0701V34.0452V34.0202V33.9951V33.97V33.9449V33.9198V33.8946V33.8694V33.8442V33.8189V33.7936V33.7683V33.7429V33.7176V33.6921V33.6667V33.6412V33.6157V33.5902V33.5646V33.539V33.5134V33.4877V33.462V33.4363V33.4106V33.3848V33.359V33.3332V33.3073V33.2814V33.2555V33.2296V33.2036V33.1776V33.1516V33.1256V33.0995V33.0734V33.0473V33.0211V32.9949V32.9687V32.9425V32.9162V32.8899V32.8636V32.8373V32.8109V32.7845V32.7581V32.7317V32.7052V32.6787V32.6522V32.6257V32.5991V32.5725V32.5459V32.5193V32.4927V32.466V32.4393V32.4125V32.3858V32.359V32.3322V32.3054V32.2786V32.2517V32.2248V32.1979V32.171V32.1441V32.1171V32.0901V32.0631V32.036V32.009V31.9819V31.9548V31.9277V31.9006V31.8734V31.8462V31.819V31.8H39.9001C41.2252 31.8 42.3001 30.7251 42.3001 29.4V15.4C42.3001 14.0749 41.2252 13 39.9001 13Z" fill="#1F293F" stroke="#1F293F" stroke-width="2"/>
<path d="M24.0005 25.6998V30.2998H19.4005V25.6998H24.0005Z" fill="#EDF1F4" stroke="#EDF1F4"/>
<path d="M24.0005 14.5001V19.1001H19.4005V14.5001H24.0005Z" fill="#EDF1F4" stroke="#EDF1F4"/>
<path d="M29.6002 20.1002V24.7002H25.0002V20.1002H29.6002Z" fill="#EDF1F4" stroke="#EDF1F4"/>
<path d="M35.2001 25.6998V30.2998H30.6001V25.6998H35.2001Z" fill="#EDF1F4" stroke="#EDF1F4"/>
<path d="M35.2001 14.5001V19.1001H30.6001V14.5001H35.2001Z" fill="#EDF1F4" stroke="#EDF1F4"/>
<path d="M40.7999 20.1002V24.7002H36.1999V20.1002H40.7999Z" fill="#EDF1F4" stroke="#EDF1F4"/>
</svg>
