<svg width="56" height="56" viewBox="0 0 56 56" fill="none" xmlns="http://www.w3.org/2000/svg">
<rect width="56" height="56" fill="#EDF1F4"/>
<path d="M27.918 16.0054C27.9208 15.3262 27.3696 14.7751 26.6904 14.7778L19.2832 14.8112C18.295 14.8154 17.8037 16.0096 18.5024 16.7083L25.9862 24.1921C26.6848 24.8908 27.879 24.3994 27.8832 23.4113L27.918 16.0054Z" fill="#1F293F"/>
<path d="M19.5673 41.2222H16.7836C15.2457 41.2222 14 39.9766 14 38.4386V37.0468C14 35.5089 15.2457 34.2632 16.7836 34.2632H19.5673C21.1052 34.2632 22.3509 35.5089 22.3509 37.0468V38.4386C22.3509 39.9766 21.1052 41.2222 19.5673 41.2222Z" fill="#1F293F"/>
<path d="M29.3099 41.2223H26.5263C24.9883 41.2223 23.7427 39.9767 23.7427 38.4387V30.0878C23.7427 28.5499 24.9883 27.3042 26.5263 27.3042H29.3099C30.8479 27.3042 32.0936 28.5499 32.0936 30.0878V38.4387C32.0936 39.9767 30.8479 41.2223 29.3099 41.2223Z" fill="#1F293F"/>
<path d="M39.0526 41.2223H36.269C34.731 41.2223 33.4854 39.9766 33.4854 38.4387V17.5615C33.4854 16.0235 34.731 14.7778 36.269 14.7778H39.0526C40.5906 14.7778 41.8362 16.0235 41.8362 17.5615V38.4387C41.8362 39.9766 40.5906 41.2223 39.0526 41.2223Z" fill="#1F293F"/>
<path d="M16.4747 28.6958C15.8414 28.6958 15.2081 28.4536 14.7252 27.9707C13.7593 27.0048 13.7593 25.4376 14.7252 24.4717L20.9104 18.2865C21.8763 17.3205 23.4435 17.3205 24.4094 18.2865C25.3753 19.2524 25.3753 20.8195 24.4094 21.7855L18.2242 27.9707C17.7412 28.4536 17.108 28.6958 16.4747 28.6958Z" fill="#1F293F"/>
</svg>
