<svg width="56" height="56" viewBox="0 0 56 56" fill="none" xmlns="http://www.w3.org/2000/svg">
<rect width="56" height="56" fill="#EDF1F4"/>
<path d="M33.0909 42H22.9091C20.8002 42 19.0909 40.2907 19.0909 38.1818V17.8182C19.0909 15.7093 20.8002 14 22.9091 14H33.0909C35.1998 14 36.9091 15.7093 36.9091 17.8182V38.1818C36.9091 40.2907 35.1998 42 33.0909 42Z" fill="#1F293F"/>
<path d="M28 39.4544C29.0544 39.4544 29.9091 38.5997 29.9091 37.5453C29.9091 36.491 29.0544 35.6362 28 35.6362C26.9457 35.6362 26.0909 36.491 26.0909 37.5453C26.0909 38.5997 26.9457 39.4544 28 39.4544Z" fill="#EDF1F4"/>
</svg>
