<svg width="232" height="38" viewBox="0 0 232 38" fill="none" xmlns="http://www.w3.org/2000/svg">
<path d="M35.3613 1.31335C35.0687 1.13329 34.7348 1.03109 34.3915 1.01647C34.0481 1.00185 33.7068 1.07529 33.3999 1.22982L18.5544 8.71049L14.8245 4.98074C12.294 2.45025 8.66925 1.72902 5.36022 3.09847C2.05417 4.46792 3.45019e-10 7.54215 3.45019e-10 11.1214V35.3614C-6.3552e-06 35.7048 0.0877932 36.0424 0.255054 36.3422C0.422314 36.642 0.663477 36.8941 0.955619 37.0745C1.24776 37.2548 1.58117 37.3575 1.92417 37.3726C2.26716 37.3878 2.60834 37.315 2.91526 37.1612L17.7644 29.7194L21.4944 33.4493C23.1772 35.1323 25.3442 36.0153 27.5799 36.0153C28.7399 36.0121 29.8879 35.78 30.9581 35.3322C34.2649 33.9622 36.3191 30.888 36.3191 27.3087V3.02768C36.3191 2.68394 36.231 2.34593 36.0634 2.04584C35.8957 1.74575 35.654 1.49358 35.3613 1.31335V1.31335ZM32.2927 6.29633V15.9207C32.2927 17.5974 31.0149 18.2568 30.6233 18.4192C30.2318 18.5809 28.8612 19.0179 27.6766 17.8327L21.5527 11.7088L32.2927 6.29633ZM4.02634 32.1007V22.5095C4.02634 20.8333 5.30368 20.1739 5.6952 20.0116C6.08672 19.8493 7.45725 19.4123 8.64249 20.5974L14.7643 26.7192L4.02634 32.1007ZM29.4173 31.6126C28.0276 32.1866 25.9645 32.2248 24.3412 30.6026L11.4892 17.7507C9.52773 15.7892 6.7175 15.2292 4.15439 16.2913C4.11081 16.3095 4.06952 16.331 4.02634 16.3499V11.1214C4.02634 8.82679 5.51149 7.39386 6.90117 6.81809C8.29197 6.24236 10.3546 6.20473 11.9779 7.8275L24.8293 20.6794C26.7908 22.6415 29.6004 23.2004 32.1641 22.1387C32.208 22.1206 32.2493 22.099 32.2927 22.0801V27.3087C32.2927 29.6033 30.8076 31.0363 29.4173 31.6126Z" fill="#FDCA49"/>
<path d="M55.8034 26.9411C58.6236 26.9411 61.227 25.7208 63.0439 23.8225L60.1422 21.2192C59.0575 22.4666 57.5118 23.3073 55.8034 23.3073C52.6848 23.3073 50.0272 20.5412 50.0272 17.2871C50.0272 14.06 52.6848 11.294 55.8034 11.294C57.5118 11.294 59.0575 12.1346 60.1422 13.3821L63.0439 10.7787C61.227 8.85335 58.6236 7.66016 55.8034 7.66016C50.4611 7.66016 45.9053 12.0533 45.9053 17.2871C45.9053 22.5208 50.4611 26.9411 55.8034 26.9411Z" fill="white"/>
<path d="M72.2989 26.9411C76.448 26.9411 79.9191 23.5784 79.9191 19.5921C79.9191 15.6057 76.448 12.2702 72.2989 12.2702C68.1228 12.2702 64.6245 15.6057 64.6245 19.5921C64.6245 23.5784 68.1228 26.9411 72.2989 26.9411ZM72.2989 23.6056C70.1837 23.6056 68.4211 21.7615 68.4211 19.5921C68.4211 17.4226 70.1837 15.6057 72.2989 15.6057C74.387 15.6057 76.1497 17.4226 76.1497 19.5921C76.1497 21.7615 74.387 23.6056 72.2989 23.6056Z" fill="white"/>
<path d="M86.5573 15.199V12.5956H82.5981V26.6157H86.5573V19.9175C86.5573 17.2871 88.4284 15.6057 91.3572 15.6057V12.2702C89.2149 12.2702 87.4793 13.3821 86.5573 15.199Z" fill="white"/>
<path d="M102.292 12.2702C100.339 12.2702 98.7123 13.1109 97.6005 14.5481V12.5956H93.6412V31.28H97.6005V24.636C98.7123 26.1004 100.339 26.9411 102.292 26.9411C106.034 26.9411 108.746 23.9039 108.746 19.5921C108.746 15.3074 106.034 12.2702 102.292 12.2702ZM101.153 23.6056C99.2276 23.6056 97.8174 22.1954 97.6005 20.1344V19.0497C97.8174 17.0159 99.2276 15.6057 101.153 15.6057C103.349 15.6057 104.895 17.2599 104.895 19.5921C104.895 21.9514 103.349 23.6056 101.153 23.6056Z" fill="white"/>
<path d="M118.431 26.9411C122.58 26.9411 126.052 23.5784 126.052 19.5921C126.052 15.6057 122.58 12.2702 118.431 12.2702C114.255 12.2702 110.757 15.6057 110.757 19.5921C110.757 23.5784 114.255 26.9411 118.431 26.9411ZM118.431 23.6056C116.316 23.6056 114.553 21.7615 114.553 19.5921C114.553 17.4226 116.316 15.6057 118.431 15.6057C120.519 15.6057 122.282 17.4226 122.282 19.5921C122.282 21.7615 120.519 23.6056 118.431 23.6056Z" fill="white"/>
<path d="M132.69 15.199V12.5956H128.73V26.6157H132.69V19.9175C132.69 17.2871 134.561 15.6057 137.49 15.6057V12.2702C135.347 12.2702 133.612 13.3821 132.69 15.199Z" fill="white"/>
<path d="M146.038 12.2702C144.085 12.2702 142.16 12.8126 140.18 13.8159L141.509 16.4464C142.621 15.8769 143.841 15.443 145.143 15.443C147.448 15.443 148.37 16.7447 148.37 18.2362V18.5074C147.177 18.0464 145.929 17.8023 144.79 17.8023C141.536 17.8023 138.96 19.7006 138.96 22.4666C138.96 25.1513 141.265 26.9411 144.248 26.9411C145.767 26.9411 147.367 26.3445 148.37 25.2055V26.6157H152.194V18.2362C152.194 14.5753 149.699 12.2702 146.038 12.2702ZM145.143 24.2021C143.787 24.2021 142.784 23.4971 142.784 22.3581C142.784 21.2192 143.923 20.3785 145.36 20.3785C146.445 20.3785 147.475 20.5683 148.37 20.8937V22.1954C148.099 23.4971 146.662 24.2021 145.143 24.2021Z" fill="white"/>
<path d="M162.907 23.1445C162.636 23.4157 162.093 23.6056 161.551 23.6056C160.819 23.6056 160.222 22.9547 160.222 22.0327V15.7956H163.259V12.5956H160.222V8.74488H156.426V12.5956H154.5V15.7956H156.426V22.6564C156.426 25.1784 158.161 26.9411 160.629 26.9411C161.768 26.9411 163.042 26.4529 163.856 25.7208L162.907 23.1445Z" fill="white"/>
<path d="M172.952 23.4428C171.298 23.4428 170.078 22.4124 169.617 20.8937H179.732C179.732 15.6057 177.156 12.2702 172.763 12.2702C168.668 12.2702 165.549 15.3346 165.549 19.565C165.549 23.8767 168.803 26.9411 172.979 26.9411C175.04 26.9411 177.454 26.0733 178.701 24.7716L176.179 22.1954C175.42 22.9276 174.064 23.4428 172.952 23.4428ZM172.925 15.7684C174.525 15.7684 175.556 16.6633 175.935 18.0464H169.671C170.186 16.6362 171.434 15.7684 172.925 15.7684Z" fill="white"/>
<path d="M182.41 26.6157H186.37V7.66016H182.41V26.6157Z" fill="white"/>
<path d="M193.025 31.4969C195.222 31.4969 197.012 30.0596 198.069 27.3207L203.818 12.5956H199.778L196.28 22.4395L192.592 12.5956H188.497L194.327 26.7512L193.839 27.7817C193.541 28.297 192.944 28.541 192.185 28.541C191.724 28.541 191.019 28.297 190.341 27.9173L189.5 30.6291C190.449 31.1444 191.859 31.4969 193.025 31.4969Z" fill="white"/>
<path d="M230.77 7.98557H226.106L221.632 14.0871L217.157 7.98557H212.439L219.245 17.3413L212.439 26.6157H217.076L221.577 20.5141L226.025 26.6157H230.77L223.937 17.2599L230.77 7.98557Z" fill="white"/>
</svg>
