<svg width="232" height="36" viewBox="0 0 232 36" fill="none" xmlns="http://www.w3.org/2000/svg">
<path d="M34.7556 0.351202C34.468 0.174228 34.1398 0.0737812 33.8024 0.0594106C33.4649 0.04504 33.1294 0.117224 32.8278 0.2691L18.2366 7.62164L14.5705 3.95578C12.0834 1.46863 8.52076 0.759754 5.26841 2.10574C2.01898 3.45173 3.3911e-10 6.47331 3.3911e-10 9.99121V33.8161C-6.24634e-06 34.1535 0.0862894 34.4854 0.250685 34.7801C0.415081 35.0748 0.652112 35.3225 0.939251 35.4998C1.22639 35.677 1.55409 35.7779 1.89121 35.7928C2.22833 35.8077 2.56366 35.7362 2.86533 35.585L17.4601 28.2707L21.1262 31.9367C22.7802 33.5908 24.9101 34.4587 27.1075 34.4587C28.2477 34.4556 29.376 34.2274 30.4278 33.7873C33.678 32.4408 35.697 29.4192 35.697 25.9013V2.03617C35.697 1.69832 35.6104 1.36609 35.4457 1.07114C35.2809 0.776193 35.0433 0.528343 34.7556 0.351202V0.351202ZM31.7396 5.24883V14.7083C31.7396 16.3563 30.4836 17.0045 30.0988 17.164C29.714 17.323 28.3669 17.7525 27.2025 16.5876L21.1835 10.5686L31.7396 5.24883ZM3.95737 30.6112V21.1843C3.95737 19.5368 5.21283 18.8887 5.59764 18.7291C5.98246 18.5696 7.32952 18.1401 8.49445 19.305L14.5114 25.3219L3.95737 30.6112ZM28.9134 30.1314C27.5476 30.6957 25.5198 30.7332 23.9242 29.1388L11.2924 16.507C9.36453 14.5791 6.60244 14.0286 4.08323 15.0726C4.0404 15.0905 3.99981 15.1116 3.95737 15.1302V9.99121C3.95737 7.73594 5.41708 6.32756 6.78296 5.76165C8.14994 5.19578 10.1772 5.1588 11.7728 6.75378L24.404 19.3856C26.3319 21.314 29.0934 21.8633 31.6132 20.8199C31.6564 20.802 31.6969 20.7808 31.7396 20.7622V25.9013C31.7396 28.1566 30.2799 29.565 28.9134 30.1314Z" fill="#FDCA49"/>
<path d="M55.1813 25.6735C58.0016 25.6735 60.6049 24.4532 62.4218 22.5549L59.5202 19.9516C58.4354 21.199 56.8897 22.0397 55.1813 22.0397C52.0627 22.0397 49.4051 19.2736 49.4051 16.0195C49.4051 12.7924 52.0627 10.0264 55.1813 10.0264C56.8897 10.0264 58.4354 10.8671 59.5202 12.1145L62.4218 9.51115C60.6049 7.58577 58.0016 6.39258 55.1813 6.39258C49.839 6.39258 45.2832 10.7857 45.2832 16.0195C45.2832 21.2533 49.839 25.6735 55.1813 25.6735Z" fill="#1D263A"/>
<path d="M71.6769 25.6735C75.8259 25.6735 79.297 22.3109 79.297 18.3245C79.297 14.3382 75.8259 11.0026 71.6769 11.0026C67.5007 11.0026 64.0025 14.3382 64.0025 18.3245C64.0025 22.3109 67.5007 25.6735 71.6769 25.6735ZM71.6769 22.338C69.5617 22.338 67.799 20.4939 67.799 18.3245C67.799 16.1551 69.5617 14.3382 71.6769 14.3382C73.765 14.3382 75.5276 16.1551 75.5276 18.3245C75.5276 20.4939 73.765 22.338 71.6769 22.338Z" fill="#1D263A"/>
<path d="M85.9352 13.9314V11.3281H81.976V25.3481H85.9352V18.6499C85.9352 16.0195 87.8064 14.3382 90.7351 14.3382V11.0026C88.5928 11.0026 86.8572 12.1145 85.9352 13.9314Z" fill="#1D263A"/>
<path d="M101.67 11.0026C99.7173 11.0026 98.0902 11.8433 96.9784 13.2806V11.3281H93.0192V30.0124H96.9784V23.3685C98.0902 24.8328 99.7173 25.6735 101.67 25.6735C105.412 25.6735 108.124 22.6363 108.124 18.3245C108.124 14.0399 105.412 11.0026 101.67 11.0026ZM100.531 22.338C98.6055 22.338 97.1953 20.9278 96.9784 18.8669V17.7821C97.1953 15.7483 98.6055 14.3382 100.531 14.3382C102.727 14.3382 104.273 15.9924 104.273 18.3245C104.273 20.6838 102.727 22.338 100.531 22.338Z" fill="#1D263A"/>
<path d="M117.809 25.6735C121.958 25.6735 125.429 22.3109 125.429 18.3245C125.429 14.3382 121.958 11.0026 117.809 11.0026C113.633 11.0026 110.135 14.3382 110.135 18.3245C110.135 22.3109 113.633 25.6735 117.809 25.6735ZM117.809 22.338C115.694 22.338 113.931 20.4939 113.931 18.3245C113.931 16.1551 115.694 14.3382 117.809 14.3382C119.897 14.3382 121.66 16.1551 121.66 18.3245C121.66 20.4939 119.897 22.338 117.809 22.338Z" fill="#1D263A"/>
<path d="M132.068 13.9314V11.3281H128.108V25.3481H132.068V18.6499C132.068 16.0195 133.939 14.3382 136.868 14.3382V11.0026C134.725 11.0026 132.99 12.1145 132.068 13.9314Z" fill="#1D263A"/>
<path d="M145.416 11.0026C143.463 11.0026 141.538 11.545 139.558 12.5484L140.887 15.1788C141.999 14.6093 143.219 14.1755 144.521 14.1755C146.826 14.1755 147.748 15.4771 147.748 16.9686V17.2398C146.555 16.7788 145.307 16.5347 144.168 16.5347C140.914 16.5347 138.338 18.433 138.338 21.199C138.338 23.8837 140.643 25.6735 143.626 25.6735C145.145 25.6735 146.745 25.0769 147.748 23.9379V25.3481H151.572V16.9686C151.572 13.3077 149.077 11.0026 145.416 11.0026ZM144.521 22.9346C143.165 22.9346 142.162 22.2295 142.162 21.0905C142.162 19.9516 143.301 19.1109 144.738 19.1109C145.823 19.1109 146.853 19.3008 147.748 19.6262V20.9278C147.477 22.2295 146.04 22.9346 144.521 22.9346Z" fill="#1D263A"/>
<path d="M162.285 21.877C162.014 22.1481 161.471 22.338 160.929 22.338C160.197 22.338 159.6 21.6871 159.6 20.7651V14.528H162.637V11.3281H159.6V7.4773H155.804V11.3281H153.878V14.528H155.804V21.3888C155.804 23.9108 157.539 25.6735 160.007 25.6735C161.146 25.6735 162.42 25.1854 163.234 24.4532L162.285 21.877Z" fill="#1D263A"/>
<path d="M172.33 22.1753C170.676 22.1753 169.456 21.1448 168.995 19.6262H179.11C179.11 14.3382 176.534 11.0026 172.14 11.0026C168.046 11.0026 164.927 14.067 164.927 18.2974C164.927 22.6092 168.181 25.6735 172.357 25.6735C174.418 25.6735 176.832 24.8057 178.079 23.504L175.557 20.9278C174.798 21.66 173.442 22.1753 172.33 22.1753ZM172.303 14.5009C173.903 14.5009 174.934 15.3958 175.313 16.7788H169.049C169.564 15.3686 170.812 14.5009 172.303 14.5009Z" fill="#1D263A"/>
<path d="M181.788 25.3481H185.748V6.39258H181.788V25.3481Z" fill="#1D263A"/>
<path d="M192.403 30.2293C194.6 30.2293 196.39 28.7921 197.447 26.0531L203.196 11.3281H199.156L195.657 21.1719L191.969 11.3281H187.875L193.705 25.4837L193.217 26.5141C192.919 27.0294 192.322 27.2735 191.563 27.2735C191.102 27.2735 190.397 27.0294 189.719 26.6497L188.878 29.3615C189.827 29.8768 191.237 30.2293 192.403 30.2293Z" fill="#1D263A"/>
<path d="M230.148 6.71799H225.484L221.01 12.8195L216.535 6.71799H211.817L218.623 16.0737L211.817 25.3481H216.454L220.955 19.2465L225.403 25.3481H230.148L223.315 15.9924L230.148 6.71799Z" fill="#1D263A"/>
</svg>
