<svg width="256" height="256" viewBox="0 0 256 256" fill="none" xmlns="http://www.w3.org/2000/svg">
<g clip-path="url(#clip0_2301_25598)">
<path d="M249.249 2.10544C247.186 0.836271 244.833 0.11592 242.413 0.0128614C239.993 -0.0901971 237.587 0.427466 235.424 1.51664L130.784 54.2452L104.492 27.9556C86.6558 10.119 61.1064 5.03536 37.7823 14.6881C14.4791 24.3408 2.43192e-09 46.01 2.43192e-09 71.2385V242.098C-4.47955e-05 244.518 0.618822 246.898 1.79778 249.011C2.97674 251.125 4.67661 252.901 6.73581 254.173C8.79502 255.444 11.1451 256.167 13.5628 256.274C15.9804 256.381 18.3852 255.868 20.5486 254.784L125.215 202.329L151.506 228.62C163.368 240.483 178.642 246.707 194.401 246.707C202.577 246.684 210.669 245.048 218.212 241.892C241.521 232.235 256 210.566 256 185.337V14.1892C256 11.7662 255.379 9.38369 254.198 7.26847C253.016 5.15325 251.312 3.3758 249.249 2.10544V2.10544ZM227.62 37.2287V105.067C227.62 116.886 218.613 121.534 215.853 122.678C213.093 123.818 203.432 126.899 195.082 118.544L151.917 75.3793L227.62 37.2287ZM28.3802 219.114V151.509C28.3802 139.695 37.3837 135.046 40.1434 133.902C42.9031 132.758 52.5634 129.678 60.9178 138.032L104.068 181.182L28.3802 219.114ZM207.352 215.674C197.557 219.72 183.014 219.989 171.572 208.555L80.9833 117.966C67.1575 104.14 47.3492 100.193 29.2828 107.68C28.9756 107.808 28.6846 107.959 28.3802 108.093V71.2385C28.3802 55.0649 38.8485 44.9647 48.6438 40.9063C58.4471 36.8482 72.9856 36.583 84.4281 48.0213L175.013 138.61C188.838 152.44 208.643 156.379 226.713 148.896C227.023 148.768 227.314 148.616 227.62 148.482V185.337C227.62 201.511 217.151 211.611 207.352 215.674Z" fill="#FDCA49"/>
</g>
<defs>
<clipPath id="clip0_2301_25598">
<rect width="256" height="256" fill="white"/>
</clipPath>
</defs>
</svg>
